<?xml version="1.0" encoding="UTF-8"?>
<svg xmlns="http://www.w3.org/2000/svg" width="1024" height="1024" viewBox="137 123 991 991" role="img" aria-label="Unity Easy Itch Push icon">
  <title>Unity Easy Itch Push icon</title>
  <path d="M 571 453 L 542 466 L 320 583 L 311 592 L 306 611 L 306 899 L 309 909 L 320 921 L 562 1052 L 581 1054 L 829 921 L 839 911 L 843 899 L 843 605 L 838 592 L 827 582 L 583 454 Z M 802 183 L 792 188 L 657 323 L 653 332 L 653 341 L 661 353 L 670 357 L 750 358 L 750 481 L 757 493 L 767 498 L 845 498 L 853 495 L 862 483 L 863 358 L 942 357 L 952 352 L 957 346 L 959 331 L 954 322 L 819 187 L 810 183 Z M 766 684 L 767 866 L 621 946 L 612 949 L 611 768 Z M 383 684 L 537 767 L 536 949 L 382 865 Z M 420 617 L 575 536 L 729 618 L 574 702 Z" fill="#FA5C5C" fill-rule="evenodd"/>
</svg>
